{
  "source": "C:\\Users\\Peter\\Desktop\\stuff\\MIUN\\quantitative_research\\video_compression\\videos\\BVI-HD\\BVI-HD_CDVL_videos\\ORIG\\BricksLeaves_1920x1080_60fps.mp4",
  "output": "C:\\Users\\Peter\\Desktop\\stuff\\MIUN\\quantitative_research\\video_compression\\compressed_videos\\BVI-HD\\vp9\\4\\BricksLeaves_1920x1080_60fps_vp9.webm",
  "codec": "vp9",
  "ok": "Input #0, mov,mp4,m4a,3gp,3g2,mj2, from 'C:\\Users\\Peter\\Desktop\\stuff\\MIUN\\quantitative_research\\video_compression\\videos\\BVI-HD\\BVI-HD_CDVL_videos\\ORIG\\BricksLeaves_1920x1080_60fps.mp4':\n  Metadata:\n    major_brand     : isom\n    minor_version   : 512\n    compatible_brands: isomiso2avc1mp41\n    encoder         : Lavf54.28.101\n  Duration: 00:00:05.00, start: 0.000000, bitrate: 524627 kb/s\n  Stream #0:0[0x1](und): Video: h264 (High 4:4:4 Predictive) (avc1 / 0x31637661), yuv420p(progressive), 1920x1080, 524622 kb/s, 60 fps, 60 tbr, 60 tbn (default)\n    Metadata:\n      handler_name    : VideoHandler\n      vendor_id       : [0][0][0][0]\n[out#0/webm @ 000001bb61579040] Codec AVOption b:a (set bitrate (in bits/s)) has not been used for any stream. The most likely reason is either wrong type (e.g. a video option with no video streams) or that it is a private option of some decoder which was not actually used for any stream.\nStream mapping:\n  Stream #0:0 -> #0:0 (h264 (native) -> vp9 (libvpx-vp9))\nPress [q] to stop, [?] for help\n[libvpx-vp9 @ 000001bb62230640] v1.15.2-100-g40561f514\nOutput #0, webm, to 'C:\\Users\\Peter\\Desktop\\stuff\\MIUN\\quantitative_research\\video_compression\\compressed_videos\\BVI-HD\\vp9\\4\\BricksLeaves_1920x1080_60fps_vp9.webm':\n  Metadata:\n    major_brand     : isom\n    minor_version   : 512\n    compatible_brands: isomiso2avc1mp41\n    encoder         : Lavf62.3.100\n  Stream #0:0(und): Video: vp9, yuv420p(tv, progressive), 1920x1080, q=2-31, 4000 kb/s, 60 fps, 1k tbn (default)\n    Metadata:\n      encoder         : Lavc62.11.100 libvpx-vp9\n      handler_name    : VideoHandler\n      vendor_id       : [0][0][0][0]\n    Side data:\n      cpb: bitrate max/min/avg: 0/0/0 buffer size: 4000000 vbv_delay: N/A\nframe=    0 fps=0.0 q=0.0 size=       0KiB time=N/A bitrate=N/A speed=N/A elapsed=0:00:00.50    \nframe=    0 fps=0.0 q=0.0 size=       0KiB time=N/A bitrate=N/A speed=N/A elapsed=0:00:01.04    \nframe=    4 fps=2.4 q=56.0 size=       1KiB time=00:00:00.06 bitrate=  76.0kbits/s speed=0.0403x elapsed=0:00:01.65    \nframe=   10 fps=4.5 q=47.0 size=       1KiB time=00:00:00.16 bitrate=  30.4kbits/s speed=0.0755x elapsed=0:00:02.20    \nframe=   16 fps=5.8 q=45.0 size=       1KiB time=00:00:00.25 bitrate=  20.3kbits/s speed=0.0905x elapsed=0:00:02.76    \nframe=   20 fps=6.0 q=46.0 size=       1KiB time=00:00:00.33 bitrate=  15.2kbits/s speed= 0.1x elapsed=0:00:03.32    \nframe=   24 fps=6.2 q=46.0 size=       1KiB time=00:00:00.40 bitrate=  12.7kbits/s speed=0.103x elapsed=0:00:03.88    \nframe=   28 fps=6.3 q=48.0 size=       1KiB time=00:00:00.45 bitrate=  11.3kbits/s speed=0.101x elapsed=0:00:04.44    \nframe=   33 fps=6.6 q=50.0 size=       1KiB time=00:00:00.55 bitrate=   9.2kbits/s speed=0.11x elapsed=0:00:04.98    \nframe=   36 fps=6.4 q=51.0 size=       1KiB time=00:00:00.60 bitrate=   8.4kbits/s speed=0.107x elapsed=0:00:05.59    \nframe=   41 fps=6.7 q=50.0 size=       1KiB time=00:00:00.68 bitrate=   7.4kbits/s speed=0.111x elapsed=0:00:06.13    \nframe=   46 fps=6.9 q=51.0 size=       1KiB time=00:00:00.76 bitrate=   6.6kbits/s speed=0.115x elapsed=0:00:06.66    \nframe=   49 fps=6.8 q=36.0 size=       1KiB time=00:00:00.81 bitrate=   6.2kbits/s speed=0.113x elapsed=0:00:07.19    \nframe=   53 fps=6.8 q=51.0 size=       1KiB time=00:00:00.86 bitrate=   5.8kbits/s speed=0.112x elapsed=0:00:07.75    \nframe=   57 fps=6.9 q=51.0 size=       1KiB time=00:00:00.95 bitrate=   5.3kbits/s speed=0.114x elapsed=0:00:08.31    \nframe=   60 fps=6.8 q=51.0 size=       1KiB time=00:00:01.00 bitrate=   5.1kbits/s speed=0.113x elapsed=0:00:08.83    \nframe=   64 fps=6.8 q=51.0 size=       1KiB time=00:00:01.06 bitrate=   4.7kbits/s speed=0.114x elapsed=0:00:09.37    \nframe=   68 fps=6.8 q=51.0 size=       1KiB time=00:00:01.13 bitrate=   4.5kbits/s speed=0.114x elapsed=0:00:09.94    \nframe=   72 fps=6.9 q=51.0 size=       1KiB time=00:00:01.20 bitrate=   4.2kbits/s speed=0.114x elapsed=0:00:10.49    \nframe=   75 fps=6.8 q=52.0 size=       1KiB time=00:00:01.25 bitrate=   4.1kbits/s speed=0.113x elapsed=0:00:11.03    \nframe=   79 fps=6.8 q=52.0 size=       1KiB time=00:00:01.30 bitrate=   3.9kbits/s speed=0.112x elapsed=0:00:11.55    \nframe=   83 fps=6.9 q=52.0 size=       1KiB time=00:00:01.38 bitrate=   3.7kbits/s speed=0.114x elapsed=0:00:12.10    \nframe=   87 fps=6.9 q=52.0 size=       1KiB time=00:00:01.45 bitrate=   3.5kbits/s speed=0.115x elapsed=0:00:12.63    \nframe=   90 fps=6.8 q=52.0 size=       1KiB time=00:00:01.50 bitrate=   3.4kbits/s speed=0.114x elapsed=0:00:13.14    \nframe=   94 fps=6.8 q=52.0 size=       1KiB time=00:00:01.56 bitrate=   3.2kbits/s speed=0.114x elapsed=0:00:13.72    \nframe=   98 fps=6.9 q=53.0 size=       1KiB time=00:00:01.63 bitrate=   3.1kbits/s speed=0.115x elapsed=0:00:14.24    \nframe=  102 fps=6.9 q=53.0 size=       1KiB time=00:00:01.70 bitrate=   3.0kbits/s speed=0.115x elapsed=0:00:14.77    \nframe=  105 fps=6.8 q=54.0 size=       1KiB time=00:00:01.75 bitrate=   2.9kbits/s speed=0.114x elapsed=0:00:15.33    \nframe=  109 fps=6.9 q=38.0 size=       1KiB time=00:00:01.81 bitrate=   2.8kbits/s speed=0.114x elapsed=0:00:15.86    \nframe=  112 fps=6.8 q=54.0 size=       1KiB time=00:00:01.86 bitrate=   2.7kbits/s speed=0.114x elapsed=0:00:16.39    \nframe=  115 fps=6.8 q=54.0 size=       1KiB time=00:00:01.91 bitrate=   2.6kbits/s speed=0.113x elapsed=0:00:16.89    \nframe=  119 fps=6.8 q=37.0 size=       1KiB time=00:00:01.96 bitrate=   2.6kbits/s speed=0.113x elapsed=0:00:17.42    \nframe=  123 fps=6.8 q=53.0 size=       1KiB time=00:00:02.05 bitrate=   2.5kbits/s speed=0.114x elapsed=0:00:17.97    \nframe=  128 fps=6.9 q=53.0 size=       1KiB time=00:00:02.13 bitrate=   2.4kbits/s speed=0.115x elapsed=0:00:18.49    \nframe=  129 fps=6.8 q=37.0 size=       1KiB time=00:00:02.15 bitrate=   2.4kbits/s speed=0.113x elapsed=0:00:19.04    \nframe=  134 fps=6.8 q=54.0 size=    1024KiB time=00:00:02.23 bitrate=3756.1kbits/s speed=0.114x elapsed=0:00:19.57    \nframe=  138 fps=6.9 q=54.0 size=    1024KiB time=00:00:02.30 bitrate=3647.2kbits/s speed=0.114x elapsed=0:00:20.12    \nframe=  140 fps=6.8 q=33.0 size=    1024KiB time=00:00:02.33 bitrate=3595.1kbits/s speed=0.113x elapsed=0:00:20.63    \nframe=  144 fps=6.8 q=56.0 size=    1024KiB time=00:00:02.40 bitrate=3495.3kbits/s speed=0.113x elapsed=0:00:21.14    \nframe=  149 fps=6.9 q=56.0 size=    1024KiB time=00:00:02.48 bitrate=3378.0kbits/s speed=0.114x elapsed=0:00:21.69    \nframe=  151 fps=6.8 q=56.0 size=    1024KiB time=00:00:02.51 bitrate=3333.2kbits/s speed=0.113x elapsed=0:00:22.28    \nframe=  157 fps=6.9 q=56.0 size=    1024KiB time=00:00:02.61 bitrate=3205.8kbits/s speed=0.115x elapsed=0:00:22.79    \nframe=  161 fps=6.9 q=56.0 size=    1024KiB time=00:00:02.68 bitrate=3126.2kbits/s speed=0.115x elapsed=0:00:23.30    \nframe=  165 fps=6.9 q=56.0 size=    1024KiB time=00:00:02.75 bitrate=3050.4kbits/s speed=0.115x elapsed=0:00:23.83    \nframe=  169 fps=6.9 q=56.0 size=    1024KiB time=00:00:02.81 bitrate=2978.2kbits/s speed=0.116x elapsed=0:00:24.36    \nframe=  172 fps=6.9 q=56.0 size=    1024KiB time=00:00:02.85 bitrate=2943.4kbits/s speed=0.114x elapsed=0:00:24.93    \nframe=  175 fps=6.8 q=57.0 size=    1024KiB time=00:00:02.91 bitrate=2876.1kbits/s speed=0.114x elapsed=0:00:25.56    \nframe=  176 fps=6.7 q=35.0 size=    1024KiB time=00:00:02.93 bitrate=2859.8kbits/s speed=0.112x elapsed=0:00:26.15    \nframe=  180 fps=6.8 q=57.0 size=    1024KiB time=00:00:03.00 bitrate=2796.2kbits/s speed=0.113x elapsed=0:00:26.66    \nframe=  184 fps=6.8 q=56.0 size=    1024KiB time=00:00:03.06 bitrate=2735.4kbits/s speed=0.113x elapsed=0:00:27.19    \nframe=  187 fps=6.7 q=55.0 size=    1024KiB time=00:00:03.11 bitrate=2691.5kbits/s speed=0.112x elapsed=0:00:27.73    \nframe=  190 fps=6.7 q=54.0 size=    1024KiB time=00:00:03.16 bitrate=2649.0kbits/s speed=0.112x elapsed=0:00:28.33    \nframe=  194 fps=6.7 q=54.0 size=    1024KiB time=00:00:03.23 bitrate=2594.4kbits/s speed=0.112x elapsed=0:00:28.85    \nframe=  199 fps=6.8 q=55.0 size=    1024KiB time=00:00:03.31 bitrate=2529.2kbits/s speed=0.113x elapsed=0:00:29.39    \nframe=  202 fps=6.7 q=55.0 size=    1024KiB time=00:00:03.36 bitrate=2491.7kbits/s speed=0.112x elapsed=0:00:29.96    \nframe=  207 fps=6.8 q=55.0 size=    1024KiB time=00:00:03.45 bitrate=2431.5kbits/s speed=0.113x elapsed=0:00:30.49    \nframe=  211 fps=6.8 q=55.0 size=    1024KiB time=00:00:03.51 bitrate=2385.4kbits/s speed=0.113x elapsed=0:00:31.04    \nframe=  214 fps=6.8 q=55.0 size=    1024KiB time=00:00:03.56 bitrate=2351.9kbits/s speed=0.113x elapsed=0:00:31.56    \nframe=  218 fps=6.8 q=55.0 size=    1024KiB time=00:00:03.63 bitrate=2308.8kbits/s speed=0.113x elapsed=0:00:32.10    \nframe=  223 fps=6.8 q=55.0 size=    1024KiB time=00:00:03.71 bitrate=2257.0kbits/s speed=0.114x elapsed=0:00:32.65    \nframe=  226 fps=6.8 q=55.0 size=    1024KiB time=00:00:03.76 bitrate=2227.1kbits/s speed=0.113x elapsed=0:00:33.22    \nframe=  230 fps=6.8 q=56.0 size=    1024KiB time=00:00:03.83 bitrate=2188.3kbits/s speed=0.114x elapsed=0:00:33.76    \nframe=  233 fps=6.8 q=57.0 size=    1024KiB time=00:00:03.88 bitrate=2160.2kbits/s speed=0.113x elapsed=0:00:34.31    \nframe=  235 fps=6.7 q=57.0 size=    1024KiB time=00:00:03.91 bitrate=2141.8kbits/s speed=0.112x elapsed=0:00:34.85    \nframe=  240 fps=6.8 q=61.0 size=    1024KiB time=00:00:04.00 bitrate=2097.2kbits/s speed=0.113x elapsed=0:00:35.39    \nframe=  245 fps=6.8 q=62.0 size=    1024KiB time=00:00:04.06 bitrate=2062.8kbits/s speed=0.113x elapsed=0:00:35.94    \nframe=  247 fps=6.8 q=61.0 size=    1024KiB time=00:00:04.11 bitrate=2037.7kbits/s speed=0.113x elapsed=0:00:36.51    \nframe=  250 fps=6.7 q=62.0 size=    1024KiB time=00:00:04.16 bitrate=2013.3kbits/s speed=0.112x elapsed=0:00:37.08    \nframe=  254 fps=6.8 q=63.0 size=    1024KiB time=00:00:04.23 bitrate=1981.6kbits/s speed=0.113x elapsed=0:00:37.60    \nframe=  256 fps=6.7 q=63.0 size=    1024KiB time=00:00:04.26 bitrate=1966.1kbits/s speed=0.112x elapsed=0:00:38.15    \nframe=  259 fps=6.7 q=63.0 size=    2048KiB time=00:00:04.31 bitrate=3886.6kbits/s speed=0.111x elapsed=0:00:38.74    \nframe=  263 fps=6.7 q=63.0 size=    2048KiB time=00:00:04.38 bitrate=3827.5kbits/s speed=0.112x elapsed=0:00:39.29    \nframe=  267 fps=6.7 q=63.0 size=    2048KiB time=00:00:04.45 bitrate=3770.2kbits/s speed=0.112x elapsed=0:00:39.82    \nframe=  270 fps=6.7 q=63.0 size=    2048KiB time=00:00:04.50 bitrate=3728.3kbits/s speed=0.111x elapsed=0:00:40.38    \nframe=  272 fps=6.6 q=63.0 size=    2048KiB time=00:00:04.53 bitrate=3700.9kbits/s speed=0.111x elapsed=0:00:40.92    \nframe=  275 fps=6.6 q=63.0 size=    2048KiB time=00:00:04.58 bitrate=3660.5kbits/s speed=0.111x elapsed=0:00:41.46    \nframe=  276 fps=6.6 q=63.0 size=    2048KiB time=00:00:04.60 bitrate=3647.2kbits/s speed=0.11x elapsed=0:00:41.98    \nframe=  276 fps=6.5 q=63.0 size=    2048KiB time=00:00:04.60 bitrate=3647.2kbits/s speed=0.108x elapsed=0:00:42.50    \nframe=  276 fps=6.4 q=63.0 size=    2048KiB time=00:00:04.60 bitrate=3647.2kbits/s speed=0.107x elapsed=0:00:43.02    \nframe=  276 fps=6.3 q=63.0 size=    2048KiB time=00:00:04.60 bitrate=3647.2kbits/s speed=0.106x elapsed=0:00:43.55    \nframe=  276 fps=6.3 q=63.0 size=    2048KiB time=00:00:04.60 bitrate=3647.2kbits/s speed=0.104x elapsed=0:00:44.12    \nframe=  276 fps=6.2 q=63.0 size=    2048KiB time=00:00:04.60 bitrate=3647.2kbits/s speed=0.103x elapsed=0:00:44.67    \nframe=  276 fps=6.1 q=63.0 size=    2048KiB time=00:00:04.60 bitrate=3647.2kbits/s speed=0.102x elapsed=0:00:45.23    \nframe=  276 fps=6.0 q=63.0 size=    2048KiB time=00:00:04.60 bitrate=3647.2kbits/s speed= 0.1x elapsed=0:00:45.79    \n[out#0/webm @ 000001bb61579040] video:2738KiB audio:0KiB subtitle:0KiB other streams:0KiB global headers:0KiB muxing overhead: 0.101656%\nframe=  300 fps=6.5 q=63.0 Lsize=    2741KiB time=00:00:05.00 bitrate=4490.3kbits/s speed=0.108x elapsed=0:00:46.30    \n",
  "seconds": 46.699156761169434,
  "probe_out": {}
}